<?xml version="1.0" encoding="UTF-8"?>
<svg width="900" height="600" viewBox="0 0 900 600" fill="none" xmlns="http://www.w3.org/2000/svg">
    <!-- Background -->
    <rect width="900" height="600" fill="#F8F9FD"/>
    
    <!-- Laptop -->
    <rect x="300" y="200" width="300" height="200" rx="10" fill="#4A72FF"/>
    <rect x="320" y="220" width="260" height="160" fill="white"/>
    <rect x="250" y="400" width="400" height="20" rx="10" fill="#2B44FF"/>
    
    <!-- Student Figure -->
    <circle cx="450" cy="150" r="40" fill="#FFB800"/>
    <rect x="410" y="190" width="80" height="100" rx="20" fill="#4A72FF"/>
    
    <!-- Books Stack -->
    <rect x="600" y="300" width="100" height="20" rx="5" fill="#FF4A4A"/>
    <rect x="600" y="280" width="100" height="20" rx="5" fill="#4AFF82"/>
    <rect x="600" y="260" width="100" height="20" rx="5" fill="#FFB800"/>
    
    <!-- Floating Elements -->
    <circle cx="200" cy="200" r="20" fill="#FF4A4A"/>
    <circle cx="700" cy="150" r="15" fill="#4AFF82"/>
    <circle cx="250" cy="350" r="25" fill="#FFB800"/>
    
    <!-- Progress Bar -->
    <rect x="350" y="250" width="200" height="10" rx="5" fill="#E0E0E0"/>
    <rect x="350" y="250" width="140" height="10" rx="5" fill="#4A72FF"/>
    
    <!-- Text Elements -->
    <rect x="350" y="270" width="120" height="8" rx="4" fill="#E0E0E0"/>
    <rect x="350" y="290" width="180" height="8" rx="4" fill="#E0E0E0"/>
    <rect x="350" y="310" width="160" height="8" rx="4" fill="#E0E0E0"/>
</svg> 